<svg xmlns="http://www.w3.org/2000/svg" viewBox="0 0 500 500"><g id="freepik--background-simple--inject-16"><path d="M371.61,122c21.6,14.76,34.5,52.77,40.61,72.39,9.52,30.57,30.12,71.2,2,115.15-25.4,39.75-62.27,43.68-87.09,59-16.47,10.16-35.51,29.62-69.78,30.49-35.17.9-47.35-8.93-72.54-20.27-29.86-13.44-55.94-8-79.53-29.46C85.11,330.93,88.38,287.8,84,262.74c-3.16-17.93-18.29-47.09-10-74.9,8.83-29.47,43.29-39.1,57.72-52.05C145,123.9,151.87,99.26,184.47,89.84c27.2-7.87,69.05,9.16,89.44,12.88C300.36,107.54,339.12,99.82,371.61,122Z" style="fill:#048654"></path><path d="M371.61,122c21.6,14.76,34.5,52.77,40.61,72.39,9.52,30.57,30.12,71.2,2,115.15-25.4,39.75-62.27,43.68-87.09,59-16.47,10.16-35.51,29.62-69.78,30.49-35.17.9-47.35-8.93-72.54-20.27-29.86-13.44-55.94-8-79.53-29.46C85.11,330.93,88.38,287.8,84,262.74c-3.16-17.93-18.29-47.09-10-74.9,8.83-29.47,43.29-39.1,57.72-52.05C145,123.9,151.87,99.26,184.47,89.84c27.2-7.87,69.05,9.16,89.44,12.88C300.36,107.54,339.12,99.82,371.61,122Z" style="fill:#fff;opacity:0.9"></path></g><g id="freepik--Shadow--inject-16"><ellipse id="freepik--path--inject-16" cx="250" cy="412.39" rx="193.89" ry="11.32" style="fill:#f5f5f5"></ellipse></g><g id="freepik--Icons--inject-16"><path d="M366.05,247.86h-8.64a9.11,9.11,0,0,1-9.1-9.1v-8.65a9.11,9.11,0,0,1,9.1-9.1h8.64a9.12,9.12,0,0,1,9.11,9.1v8.65A9.12,9.12,0,0,1,366.05,247.86Zm-8.64-24.2a6.46,6.46,0,0,0-6.45,6.45v8.65a6.45,6.45,0,0,0,6.45,6.45h8.64a6.45,6.45,0,0,0,6.45-6.45v-8.65a6.46,6.46,0,0,0-6.45-6.45Z" style="fill:#048654"></path><g style="opacity:0.6000000000000001"><path d="M366.05,247.86h-8.64a9.11,9.11,0,0,1-9.1-9.1v-8.65a9.11,9.11,0,0,1,9.1-9.1h8.64a9.12,9.12,0,0,1,9.11,9.1v8.65A9.12,9.12,0,0,1,366.05,247.86Zm-8.64-24.2a6.46,6.46,0,0,0-6.45,6.45v8.65a6.45,6.45,0,0,0,6.45,6.45h8.64a6.45,6.45,0,0,0,6.45-6.45v-8.65a6.46,6.46,0,0,0-6.45-6.45Z" style="fill:#fff"></path></g><polygon points="360.79 241.82 348.18 229.22 351.93 225.46 360.79 234.32 376.84 218.27 380.59 222.02 360.79 241.82" style="fill:#048654"></polygon><path d="M175.56,151.07h-7.64a8.06,8.06,0,0,1-8-8v-7.65a8.06,8.06,0,0,1,8-8.05h7.64a8.06,8.06,0,0,1,8.05,8.05V143A8.06,8.06,0,0,1,175.56,151.07Zm-7.64-21.4a5.71,5.71,0,0,0-5.71,5.7V143a5.71,5.71,0,0,0,5.71,5.7h7.64a5.7,5.7,0,0,0,5.7-5.7v-7.65a5.7,5.7,0,0,0-5.7-5.7Z" style="fill:#048654"></path><g style="opacity:0.6000000000000001"><path d="M175.56,151.07h-7.64a8.06,8.06,0,0,1-8-8v-7.65a8.06,8.06,0,0,1,8-8.05h7.64a8.06,8.06,0,0,1,8.05,8.05V143A8.06,8.06,0,0,1,175.56,151.07Zm-7.64-21.4a5.71,5.71,0,0,0-5.71,5.7V143a5.71,5.71,0,0,0,5.71,5.7h7.64a5.7,5.7,0,0,0,5.7-5.7v-7.65a5.7,5.7,0,0,0-5.7-5.7Z" style="fill:#fff"></path></g><polygon points="170.9 145.72 159.76 134.58 163.07 131.26 170.9 139.09 185.09 124.9 188.41 128.22 170.9 145.72" style="fill:#048654"></polygon></g><g id="freepik--Shield--inject-16"><path d="M400,139.6a66.46,66.46,0,0,1-22-9.68,66.37,66.37,0,0,1-22,9.68,71.41,71.41,0,0,1-8.72,1.51c0,.13,0,.27,0,.4,0,27,12.12,45.85,30.73,60.59,18.61-14.74,30.73-33.58,30.73-60.59,0-.13,0-.27,0-.4A71.57,71.57,0,0,1,400,139.6Z" style="fill:#048654"></path><path d="M378,129.92a66.37,66.37,0,0,1-22,9.68,71.41,71.41,0,0,1-8.72,1.51c0,.13,0,.27,0,.4,0,27,12.12,45.85,30.73,60.59Z" style="opacity:0.1"></path><g style="opacity:0.5"><path d="M378,197.2l-.82-.7c-16.77-14.36-25-30.54-26-50.94l-.05-1.12,1.1-.19c1.58-.27,3.16-.59,4.68-1a70.52,70.52,0,0,0,20.44-8.4l.66-.41.66.41a70.64,70.64,0,0,0,20.44,8.4h0c1.54.37,3.11.69,4.68,1l1.11.19-.06,1.12c-1,20.4-9.24,36.59-26,50.94Zm-24.24-50.65c1.16,18.8,8.89,33.88,24.24,47.31,15.35-13.42,23.08-28.51,24.24-47.31-1.25-.23-2.5-.5-3.73-.8h0a73.18,73.18,0,0,1-20.51-8.3,73.06,73.06,0,0,1-20.51,8.3C356.27,146.05,355,146.31,353.76,146.55Z" style="fill:#fff"></path></g><path d="M378,193.86h0c-15.35-13.43-23.08-28.51-24.24-47.31,1.26-.24,2.51-.5,3.73-.8a73.06,73.06,0,0,0,20.51-8.3h0v-3h0l-.66.41a70.52,70.52,0,0,1-20.44,8.4c-1.52.37-3.1.69-4.68,1l-1.1.19.05,1.12c1,20.4,9.24,36.58,26,50.94l.82.7h0Z" style="fill:#f0f0f0;opacity:0.9"></path><g style="opacity:0.2"><polygon points="376.26 177.64 362.81 164.18 366.81 160.18 376.26 169.63 393.39 152.5 397.4 156.5 376.26 177.64" style="fill:#048654"></polygon></g><g style="opacity:0.9"><polygon points="376.26 177.64 362.81 164.18 366.81 160.18 376.26 169.63 393.39 152.5 397.4 156.5 376.26 177.64" style="fill:#fff"></polygon></g></g><g id="freepik--Building--inject-16"><rect x="285.11" y="128.94" width="34.93" height="32.47" style="fill:#048654"></rect><rect x="285.11" y="128.94" width="34.93" height="32.47" style="fill:#fff;opacity:0.30000000000000004"></rect><rect x="318.08" y="128.94" width="17.46" height="32.47" style="fill:#048654"></rect><rect x="297.08" y="135.31" width="10.97" height="26.1" style="fill:#263238"></rect><rect x="297.08" y="135.31" width="2.74" height="26.1" style="fill:#048654"></rect><rect x="207.58" y="157.08" width="90.97" height="258.4" style="fill:#048654"></rect><rect x="207.58" y="157.08" width="90.97" height="258.4" style="fill:#fff;opacity:0.6000000000000001"></rect><polygon points="297.19 157.08 297.19 195.29 277.12 195.29 277.12 203.76 297.19 203.76 297.19 236.51 277.12 236.51 277.12 244.98 297.19 244.98 297.19 277.73 277.12 277.73 277.12 286.2 297.19 286.2 297.19 318.95 277.12 318.95 277.12 327.42 297.19 327.42 297.19 360.17 277.12 360.17 277.12 368.64 297.19 368.64 297.19 415.48 340.2 415.48 340.2 157.08 297.19 157.08" style="fill:#048654"></polygon><polygon points="297.19 157.08 297.19 195.29 277.12 195.29 277.12 203.76 297.19 203.76 297.19 236.51 277.12 236.51 277.12 244.98 297.19 244.98 297.19 277.73 277.12 277.73 277.12 286.2 297.19 286.2 297.19 318.95 277.12 318.95 277.12 327.42 297.19 327.42 297.19 360.17 277.12 360.17 277.12 368.64 297.19 368.64 297.19 415.48 340.2 415.48 340.2 157.08 297.19 157.08" style="fill:#fff;opacity:0.2"></polygon><rect x="194.84" y="360.17" width="83.41" height="8.47" style="fill:#048654"></rect><rect x="194.84" y="318.95" width="83.41" height="8.47" style="fill:#048654"></rect><rect x="194.84" y="277.73" width="83.41" height="8.47" style="fill:#048654"></rect><rect x="194.84" y="236.51" width="83.41" height="8.47" style="fill:#048654"></rect><rect x="194.84" y="195.29" width="83.41" height="8.47" style="fill:#048654"></rect><g style="opacity:0.4"><rect x="194.84" y="360.17" width="83.41" height="8.47" style="fill:#fff"></rect><rect x="194.84" y="318.95" width="83.41" height="8.47" style="fill:#fff"></rect><rect x="194.84" y="277.73" width="83.41" height="8.47" style="fill:#fff"></rect><rect x="194.84" y="236.51" width="83.41" height="8.47" style="fill:#fff"></rect><rect x="194.84" y="195.29" width="83.41" height="8.47" style="fill:#fff"></rect></g><rect x="226.5" y="377.9" width="53.14" height="37.58" style="fill:#048654"></rect><rect x="215.28" y="167.05" width="22.02" height="22.02" style="fill:#048654"></rect><rect x="241.54" y="167.05" width="22.02" height="22.02" style="fill:#048654"></rect><rect x="267.8" y="167.05" width="22.02" height="22.02" style="fill:#fff;opacity:0.7000000000000001"></rect><rect x="215.28" y="209.12" width="22.02" height="22.02" style="fill:#fff;opacity:0.7000000000000001"></rect><rect x="241.54" y="209.12" width="22.02" height="22.02" style="fill:#048654"></rect><rect x="267.8" y="209.12" width="22.02" height="22.02" style="fill:#fff;opacity:0.7000000000000001"></rect><rect x="215.28" y="250.34" width="22.02" height="22.02" style="fill:#fff;opacity:0.7000000000000001"></rect><rect x="241.54" y="250.34" width="22.02" height="22.02" style="fill:#fff;opacity:0.7000000000000001"></rect><rect x="267.8" y="250.34" width="22.02" height="22.02" style="fill:#048654"></rect><rect x="215.28" y="291.56" width="22.02" height="22.02" style="fill:#fff;opacity:0.7000000000000001"></rect><rect x="241.54" y="291.56" width="22.02" height="22.02" style="fill:#048654"></rect><rect x="267.8" y="291.56" width="22.02" height="22.02" style="fill:#fff;opacity:0.7000000000000001"></rect><rect x="215.28" y="332.79" width="22.02" height="22.02" style="fill:#048654"></rect><rect x="241.54" y="332.79" width="22.02" height="22.02" style="fill:#048654"></rect><rect x="267.8" y="332.79" width="22.02" height="22.02" style="fill:#fff;opacity:0.7000000000000001"></rect><rect x="215.28" y="167.05" width="2.32" height="22.02" style="fill:#048654"></rect><rect x="241.54" y="167.05" width="2.32" height="22.02" style="fill:#048654"></rect><rect x="267.8" y="167.05" width="2.32" height="22.02" style="fill:#048654"></rect><rect x="215.28" y="209.12" width="2.32" height="22.02" style="fill:#048654"></rect><rect x="241.54" y="209.12" width="2.32" height="22.02" style="fill:#048654"></rect><rect x="267.8" y="209.12" width="2.32" height="22.02" style="fill:#048654"></rect><rect x="215.28" y="250.34" width="2.32" height="22.02" style="fill:#048654"></rect><rect x="241.54" y="250.34" width="2.32" height="22.02" style="fill:#048654"></rect><rect x="267.8" y="250.34" width="2.32" height="22.02" style="fill:#048654"></rect><rect x="215.28" y="291.56" width="2.32" height="22.02" style="fill:#048654"></rect><rect x="241.54" y="291.56" width="2.32" height="22.02" style="fill:#048654"></rect><rect x="267.8" y="291.56" width="2.32" height="22.02" style="fill:#048654"></rect><rect x="215.28" y="332.79" width="2.32" height="22.02" style="fill:#048654"></rect><rect x="241.54" y="332.79" width="2.32" height="22.02" style="fill:#048654"></rect><rect x="267.8" y="332.79" width="2.32" height="22.02" style="fill:#048654"></rect><g style="opacity:0.2"><rect x="215.28" y="167.05" width="2.32" height="22.02"></rect><rect x="241.54" y="167.05" width="2.32" height="22.02"></rect><rect x="267.8" y="167.05" width="2.32" height="22.02"></rect><rect x="215.28" y="209.12" width="2.32" height="22.02"></rect><rect x="241.54" y="209.12" width="2.32" height="22.02"></rect><rect x="267.8" y="209.12" width="2.32" height="22.02"></rect><rect x="215.28" y="250.34" width="2.32" height="22.02"></rect><rect x="241.54" y="250.34" width="2.32" height="22.02"></rect><rect x="267.8" y="250.34" width="2.32" height="22.02"></rect><rect x="215.28" y="291.56" width="2.32" height="22.02"></rect><rect x="241.54" y="291.56" width="2.32" height="22.02"></rect><rect x="267.8" y="291.56" width="2.32" height="22.02"></rect><rect x="215.28" y="332.79" width="2.32" height="22.02"></rect><rect x="241.54" y="332.79" width="2.32" height="22.02"></rect><rect x="267.8" y="332.79" width="2.32" height="22.02"></rect></g><rect x="253.07" y="380.44" width="24.03" height="35.04" style="fill:#fff;opacity:0.4"></rect><rect x="229.04" y="380.44" width="24.03" height="35.04" style="fill:#fff;opacity:0.7000000000000001"></rect><rect x="229.04" y="380.44" width="2.54" height="35.04" style="fill:#048654"></rect><rect x="229.04" y="380.44" width="2.54" height="35.04" style="opacity:0.2"></rect></g><g id="freepik--Character--inject-16"><path d="M101,209.14a29.67,29.67,0,0,1,1.81-5.64c.83-2,1.77-4,2.8-6s2.11-4,3.21-6,2.31-4,3.43-5.86L103.41,180c-1.4,2.13-2.59,4.19-3.8,6.34s-2.32,4.32-3.39,6.55-2,4.55-2.91,7a36.77,36.77,0,0,0-2,8,19.69,19.69,0,0,0-.07,2.81h9.54A8.81,8.81,0,0,1,101,209.14Z" style="fill:#ce7a63"></path><path d="M173.56,187.18a97.73,97.73,0,0,1-7.43,11.15,23.46,23.46,0,0,1-2,2.23,8.09,8.09,0,0,1-1.87,1.43l-.11,0s-.36-.22-.78-.64A23.18,23.18,0,0,1,157.9,197c-1.11-1.78-2.19-3.7-3.2-5.68s-2-4-2.92-6.06-1.85-4.19-2.68-6.17l-9.73,3.74c.89,2.4,1.85,4.56,2.86,6.8s2.12,4.41,3.31,6.58a69.47,69.47,0,0,0,4,6.44c.76,1.06,1.57,2.11,2.47,3.16a22.37,22.37,0,0,0,3.23,3.1,14.11,14.11,0,0,0,2.27,1.45,10,10,0,0,0,3.25,1,8.65,8.65,0,0,0,3.77-.42,10,10,0,0,0,2.67-1.41,17,17,0,0,0,3.36-3.28,29,29,0,0,0,2.26-3.35,48.79,48.79,0,0,0,3.27-6.82,56.94,56.94,0,0,0,2.27-7Z" style="fill:#ce7a63"></path><path d="M160.1,195.63l-10.86,8.11s-.42-.46-1.11-1.26c-.5-.58-1.15-1.36-1.9-2.27-4.22-5.14-10.39-14.53-10.44-19.12-.08-6.86,7-7.87,15-.86,3.44,3,5.24,8.05,7,11.16.58,1,1.07,1.92,1.45,2.62C159.8,195,160.1,195.63,160.1,195.63Z" style="fill:#263238"></path><path d="M160.1,195.63l-10.86,8.11s-.42-.46-1.11-1.26c-.5-.58-1.15-1.36-1.9-2.27-4.22-5.14-10.39-14.53-10.44-19.12-.08-6.86,7-7.87,15-.86,3.44,3,5.24,8.05,7,11.16.58,1,1.07,1.92,1.45,2.62C159.8,195,160.1,195.63,160.1,195.63Z" style="fill:#fff;opacity:0.5"></path><path d="M135.72,181.88c2.45-1.63,4.24,2.57,9.1,6.12,2.16,1.59,6.9,11.9,6.51,14.18l-2.09,1.56S135.66,188.71,135.72,181.88Z" style="opacity:0.2"></path><path d="M172.72,188.83l3.87-7,3.54,9.21s-4.38,3.66-6.62,1.2Z" style="fill:#ce7a63"></path><polygon points="181.08 181.75 182.64 188.64 180.13 191 176.59 181.79 181.08 181.75" style="fill:#ce7a63"></polygon><path d="M173.35,188.29a11.44,11.44,0,0,0-.84-3.69c-.6-1.36-2-2.5-1.71-3.25.14-.33,1-.49,1.35-.41a4.61,4.61,0,0,1,2,1.79c.47.82,1.78,3.69,1.78,3.69Z" style="fill:#ce7a63"></path><path d="M135.16,143.49s3,1.4,1.61,3.64a3,3,0,0,1,.65,4.36s.17,4.12-2.26,1.73-3.16-9.1-3.16-9.1Z" style="fill:#263238"></path><path d="M114.66,188.17a129.39,129.39,0,0,1-6,14c-.49,1-1,1.93-1.32,2.67-.65,1.28-1.06,2.06-1.06,2.06l-13.93-7.71s.18-.59.49-1.57c.25-.74.56-1.72,1-2.84,2.32-6.61,7.06-18.41,11.7-19.08C112.48,174.64,117.48,179.83,114.66,188.17Z" style="fill:#263238"></path><path d="M114.66,188.17a129.39,129.39,0,0,1-6,14c-.49,1-1,1.93-1.32,2.67-.65,1.28-1.06,2.06-1.06,2.06l-13.93-7.71s.18-.59.49-1.57c.25-.74.56-1.72,1-2.84,2.32-6.61,7.06-18.41,11.7-19.08C112.48,174.64,117.48,179.83,114.66,188.17Z" style="fill:#fff;opacity:0.5"></path><polygon points="166.54 406.96 173.08 404.84 169.02 389.42 162.48 391.54 166.54 406.96" style="fill:#ce7a63"></polygon><path d="M173.18,404l-7.35,2.38a.49.49,0,0,0-.34.61l1.53,5.93a1.22,1.22,0,0,0,1.52.79c2.55-.88,3.72-1.42,7-2.47,2-.65,10.51-3.18,13.25-4.07s1.79-3.58.54-3.45c-5.57.59-12.53,1.17-14.84.31A2,2,0,0,0,173.18,404Z" style="fill:#263238"></path><polygon points="162.48 391.54 169.02 389.42 171.11 397.37 164.57 399.49 162.48 391.54" style="opacity:0.2"></polygon><path d="M146.54,235.43s9.28,56,12,75.49c3,21.38,14.85,83.91,14.85,83.91l-12.14,3.35S144,337.59,139,316.8C133.7,294.25,122,235.43,122,235.43Z" style="fill:#263238"></path><path d="M131.63,258.38c4.75,11.86,5.29,32,3.36,40.29-2.91-13.57-6.25-29.8-8.82-42.42C127.09,253,128.75,251.17,131.63,258.38Z" style="opacity:0.4"></path><polygon points="160.98 398.42 173.98 394.84 173.73 389.54 159.09 394.6 160.98 398.42" style="fill:#263238"></polygon><path d="M175.87,404.36a9.65,9.65,0,0,1-1.82.33.18.18,0,0,1-.16-.08.17.17,0,0,1,0-.18c.16-.21,1.6-2.08,2.5-2a.58.58,0,0,1,.49.31.88.88,0,0,1,.08.89A1.88,1.88,0,0,1,175.87,404.36Zm-1.48,0c1.25-.15,2.1-.46,2.31-.86a.6.6,0,0,0-.07-.58.26.26,0,0,0-.24-.16C175.91,402.7,175,403.6,174.39,404.33Z" style="fill:#048654"></path><path d="M174.08,404.68H174a.15.15,0,0,1-.12-.1c0-.08-.79-1.91-.34-2.76a.79.79,0,0,1,.58-.42.59.59,0,0,1,.7.28c.38.66-.15,2.34-.68,2.94A.12.12,0,0,1,174.08,404.68Zm0-2.94a.49.49,0,0,0-.29.24,3.58,3.58,0,0,0,.25,2.22,3.26,3.26,0,0,0,.47-2.35c-.05-.09-.13-.18-.36-.13Z" style="fill:#048654"></path><polygon points="100.74 409.97 107.61 409.97 109.9 394.05 103.03 394.05 100.74 409.97" style="fill:#ce7a63"></polygon><path d="M108.05,409.17h-7.73a.55.55,0,0,0-.55.47l-.91,6.11A1.11,1.11,0,0,0,100,417c2.69-.05,4-.21,7.39-.21,2.09,0,11,.22,13.84.22s3-2.86,1.85-3.11c-5.38-1.16-12-2.76-13.85-4.29A1.78,1.78,0,0,0,108.05,409.17Z" style="fill:#263238"></path><polygon points="103.02 394.05 109.9 394.05 108.72 402.26 101.84 402.26 103.02 394.05" style="opacity:0.2"></polygon><path d="M134.09,235.08s-3.94,52.54-6.78,72.23c-3.1,21.55-15.47,93-15.47,93H99.25s6.47-69.68,7.58-91c1.2-23.16,3.53-74.18,3.53-74.18Z" style="fill:#263238"></path><polygon points="98.74 400.28 112.35 400.28 113.52 395.5 98.44 396.24 98.74 400.28" style="fill:#263238"></polygon><path d="M110.38,410.37a7.91,7.91,0,0,1-1.81-.25.13.13,0,0,1-.11-.12.15.15,0,0,1,.08-.16c.23-.16,2.29-1.49,3.1-1.16a.55.55,0,0,1,.34.46,1,1,0,0,1-.28.87A2,2,0,0,1,110.38,410.37Zm-1.35-.48c1.21.25,2.12.21,2.46-.11a.61.61,0,0,0,.17-.57.27.27,0,0,0-.16-.23C111.06,408.8,109.87,409.38,109,409.89Z" style="fill:#048654"></path><path d="M108.6,410.13l-.07,0a.14.14,0,0,1-.07-.13c0-.08,0-2.06.77-2.73a.86.86,0,0,1,.7-.22.56.56,0,0,1,.54.48c.09.75-1.06,2.19-1.78,2.6Zm1.19-2.79a.54.54,0,0,0-.36.14,3.8,3.8,0,0,0-.64,2.19c.64-.51,1.42-1.6,1.36-2.09,0-.1-.06-.21-.29-.23Z" style="fill:#048654"></path><path d="M146.54,235.43H109.76c-.26-3.29.5-14-.06-27.57a173.87,173.87,0,0,0-3.66-30c-.16-.74-.33-1.47-.51-2.21,0,0,1.87-.38,4.54-.77,2.22-.33,5-.66,7.73-.79a137.86,137.86,0,0,1,15.62,0c2.4.22,4.75.62,6.62,1,2.4.48,3.81.9,3.81.9S152.91,196.76,146.54,235.43Z" style="fill:#263238"></path><path d="M146.54,235.43H109.76c-.26-3.29.5-14-.06-27.57a173.87,173.87,0,0,0-3.66-30c-.16-.74-.33-1.47-.51-2.21,0,0,1.87-.38,4.54-.77,2.22-.33,5-.66,7.73-.79a137.86,137.86,0,0,1,15.62,0c2.4.22,4.75.62,6.62,1,2.4.48,3.81.9,3.81.9S152.91,196.76,146.54,235.43Z" style="fill:#fff;opacity:0.5"></path><path d="M123.24,183.19l3.86-4.86.91-1.18,2.06,1.1L135,182c4-3.36,2-6.37,1.19-7.57-.9-.13-1.83-.25-2.78-.34a138,138,0,0,0-15.63,0c-1.13,0-2.28.14-3.39.25A15.86,15.86,0,0,0,123.24,183.19Z" style="fill:#263238"></path><path d="M123.24,183.19l3.86-4.86.91-1.18,2.06,1.1L135,182c4-3.36,2-6.37,1.19-7.57-.9-.13-1.83-.25-2.78-.34a138,138,0,0,0-15.63,0c-1.13,0-2.28.14-3.39.25A15.86,15.86,0,0,0,123.24,183.19Z" style="fill:#fff;opacity:0.7000000000000001"></path><path d="M118.13,156.56l4.18,3.47,5.7,4.73a19,19,0,0,0-.37,2.3c-.3,3.09.5,5.9,5,7,0,0,5.39,3.57-2.61,4.22a10.43,10.43,0,0,1-.4,2.57,10.19,10.19,0,0,0-2.57-2.49c-8.75-.15-9.91-4.2-9.91-4.2C120.6,170.77,119.29,161.6,118.13,156.56Z" style="fill:#ce7a63"></path><path d="M128,164.76a19,19,0,0,0-.37,2.3c-2.12-.43-5-2.69-5.25-4.86a9.75,9.75,0,0,1-.08-2.17Z" style="opacity:0.2"></path><path d="M116.4,149.32c1.46,6.68,2,10.66,5.92,13.71a8.9,8.9,0,0,0,14.39-6.4c.52-6.23-2-16.12-9-18A9,9,0,0,0,116.4,149.32Z" style="fill:#ce7a63"></path><path d="M125.21,151.72c.08.55.45,1,.81.92s.58-.52.49-1.07-.44-1-.8-.92S125.13,151.17,125.21,151.72Z" style="fill:#263238"></path><path d="M131.43,151c.09.55.45,1,.81.92s.58-.52.5-1.07-.45-1-.81-.92S131.35,150.43,131.43,151Z" style="fill:#263238"></path><path d="M130.37,151.49a20.74,20.74,0,0,0,3.35,4.38,3.14,3.14,0,0,1-2.55.8Z" style="fill:#ba4d3c"></path><path d="M129.9,158.67a4.71,4.71,0,0,1-3.46-1.43.16.16,0,1,1,.24-.21,4.57,4.57,0,0,0,3.82,1.28.16.16,0,1,1,0,.32A4.78,4.78,0,0,1,129.9,158.67Z" style="fill:#263238"></path><path d="M123.85,150a.29.29,0,0,1-.16,0,.33.33,0,0,1-.13-.44,3.13,3.13,0,0,1,2.44-1.65.32.32,0,0,1,.34.31.32.32,0,0,1-.31.34,2.47,2.47,0,0,0-1.9,1.31A.32.32,0,0,1,123.85,150Z" style="fill:#263238"></path><path d="M134.65,148.53a.35.35,0,0,1-.27-.14,2.71,2.71,0,0,0-2-1.24.34.34,0,0,1-.33-.33.33.33,0,0,1,.33-.33h0a3.37,3.37,0,0,1,2.59,1.53.34.34,0,0,1-.08.46A.32.32,0,0,1,134.65,148.53Z" style="fill:#263238"></path><path d="M114.59,173.94a.92.92,0,0,1,.89.4c2.69,4.12,21.62,33.5,22.55,45.36.36,4.59-3.58,14.93-6.09,21a6.4,6.4,0,0,1-6.89,3.86l-14.68-2.3a2.42,2.42,0,0,1-2-2.86,46,46,0,0,0,.76-8.89c0-7.7-.43-28.37-.43-28.37s6-11.59-1.16-26a.91.91,0,0,1,.7-1.3Z" style="fill:#048654"></path><path d="M138,219.7c-.44-5.61-4.91-15.14-9.78-24.06-2.28,9.39-4.21,19.44-3.66,24.8.44,4.31,4.74,13.26,7.79,19.17C134.88,233.48,138.37,224,138,219.7Z" style="opacity:0.1"></path><path d="M134.1,207.29c-.63-1.4-1.31-2.84-2-4.3-3.21.1-6.36.12-9.31.09a109.25,109.25,0,0,0-9.25-29l-4.58.64a105.54,105.54,0,0,1,9.3,28.28c-4-.1-7.41-.26-9.53-.38,0,.76.05,2.33.09,4.37,2.33.14,5.9.31,10.15.4a107.91,107.91,0,0,1-.86,36l4.31.68a112.31,112.31,0,0,0,1-36.66H125C127.93,207.47,131,207.42,134.1,207.29Z" style="fill:#fff;opacity:0.6000000000000001"></path><path d="M137.26,174.06a.76.76,0,0,0-.92.78,48.17,48.17,0,0,1-1.64,13.61c-2.93,11-8.81,25.22-8.11,32,.46,4.54,5.21,14.23,8.26,20.08a6.37,6.37,0,0,0,7.66,3.1l4.21-1.4a2.43,2.43,0,0,0,1.63-2.69c-.35-2.36-.62-7,.46-15.21,1.72-13.07,0-30,0-30A69.19,69.19,0,0,1,144,176a.79.79,0,0,0-.61-.66Z" style="fill:#048654"></path><path d="M149.5,205.82c0-1.17-.08-2.29-.13-3.34h0c0-.35,0-.7-.05-1-1.32.23-2.71.43-4.13.6a263.34,263.34,0,0,0-2.73-26.94l-4.59-.93a245.39,245.39,0,0,1,3,28.32c-3.5.29-7.11.46-10.64.53-.47,1.5-.92,3-1.34,4.41,4-.07,8.16-.24,12.2-.58.11,2.36.21,4.83.29,7.43.44,15.13.42,24.29.29,29.54a6.34,6.34,0,0,0,.86-.21l3.53-1.17c.1-5.52.08-14.4-.33-28.29-.08-2.72-.18-5.29-.29-7.74,1.39-.17,2.76-.36,4.08-.58Z" style="fill:#fff;opacity:0.6000000000000001"></path><path d="M120.35,222.94c-1.81-1.29-8.41-.06-11.28.56,0,2.75.06,5.22.06,7,0,1.26,0,2.4-.1,3.44,2.81.57,9.33,1.73,11.32.59C123.35,232.81,123.09,224.9,120.35,222.94Z" style="fill:#048654"></path><path d="M120.35,222.94c-1.81-1.29-8.41-.06-11.28.56,0,2.75.06,5.22.06,7,0,1.26,0,2.4-.1,3.44,2.81.57,9.33,1.73,11.32.59C123.35,232.81,123.09,224.9,120.35,222.94Z" style="opacity:0.2"></path><path d="M132.7,231.3a72.36,72.36,0,0,1-12.26-.9l.63-3.43a84.3,84.3,0,0,0,24.14,0l.47,3.45A94.92,94.92,0,0,1,132.7,231.3Z" style="fill:#048654"></path><g style="opacity:0.2"><path d="M132.7,231.3a72.36,72.36,0,0,1-12.26-.9l.63-3.43a84.3,84.3,0,0,0,24.14,0l.47,3.45A94.92,94.92,0,0,1,132.7,231.3Z"></path></g><path d="M149,222.54c-1.82-.26-3.56-.27-4.29.4-2.14,2-2.34,9.87,0,11.58A5.43,5.43,0,0,0,148,235a76.54,76.54,0,0,1,.77-10.63Z" style="fill:#048654"></path><path d="M149,222.54c-1.82-.26-3.56-.27-4.29.4-2.14,2-2.34,9.87,0,11.58A5.43,5.43,0,0,0,148,235a76.54,76.54,0,0,1,.77-10.63Z" style="opacity:0.2"></path><path d="M116.54,146.61s-6.1,1.84-3.78,4.3c0,0-2.24,1.85-.07,3.62,0,0-1.23,3.18,2.33,3,0,0-.17,3.76,2.55,2.46,0,0,.72,1.4,2.2.27s-.34-5-.34-5,2.6-1.13,1.74-3.52c0,0,2.28-1,1.11-4,0,0,1.89-1.65,1.24-2.81Z" style="fill:#263238"></path><path d="M114.86,156.29a7.35,7.35,0,0,0,4.25,2.53c2.11.36,2.58-1.6,1.51-3.48-1-1.7-3.23-3.93-5.11-3.44S113.5,154.65,114.86,156.29Z" style="fill:#ce7a63"></path><path d="M135.16,141.26l-20.53,5.87s-3.31-10.06,6.55-12.42C130.57,132.46,135.16,141.26,135.16,141.26Z" style="fill:#048654"></path><path d="M122.45,140.1l-8.2,2.36a.67.67,0,0,1-.82-.82l.54-2a.67.67,0,0,1,.58-.49l7.69-.77a.54.54,0,0,1,.6.54v.64A.54.54,0,0,1,122.45,140.1Z" style="fill:#048654"></path><path d="M122.45,140.1l-8.2,2.36a.67.67,0,0,1-.82-.82l.54-2a.67.67,0,0,1,.58-.49l7.69-.77a.54.54,0,0,1,.6.54v.64A.54.54,0,0,1,122.45,140.1Z" style="fill:#fff;opacity:0.2"></path><path d="M131.79,137.93l-2.16.33a1.79,1.79,0,0,1-1.33-.3,10.76,10.76,0,0,0-11.05-1,.18.18,0,0,1-.19-.31c2.36-1.93,8.14-5.33,15,.23A.58.58,0,0,1,131.79,137.93Z" style="fill:#048654"></path><path d="M131.79,137.93l-2.16.33a1.79,1.79,0,0,1-1.33-.3,10.76,10.76,0,0,0-11.05-1,.18.18,0,0,1-.19-.31c2.36-1.93,8.14-5.33,15,.23A.58.58,0,0,1,131.79,137.93Z" style="fill:#fff;opacity:0.2"></path><path d="M134.19,139.77l-5,1.2a.51.51,0,0,1-.57-.24l-.38-.66a.53.53,0,0,1,.35-.77l4.39-.91A15.73,15.73,0,0,1,134.19,139.77Z" style="fill:#fff;opacity:0.6000000000000001"></path><path d="M134.85,140.73s7.8,2,.31,3.66a115.15,115.15,0,0,1-17,2.15l-3.39,1a.67.67,0,0,1-.83-.45l0-.11a.68.68,0,0,1,.48-.86Z" style="fill:#048654"></path><path d="M134.85,140.73s7.8,2,.31,3.66a115.15,115.15,0,0,1-17,2.15l-3.39,1a.67.67,0,0,1-.83-.45l0-.11a.68.68,0,0,1,.48-.86Z" style="fill:#fff;opacity:0.2"></path><polygon points="148.72 201.08 128.42 201.08 118.09 225.93 118.73 226.48 139.03 226.48 149.35 201.63 148.72 201.08" style="fill:#263238"></polygon><polygon points="148.72 201.08 128.42 201.08 118.09 225.93 118.73 226.48 139.03 226.48 149.35 201.63 148.72 201.08" style="fill:#fff;opacity:0.4"></polygon><polygon points="139.03 226.48 118.73 226.48 129.06 201.63 149.35 201.63 139.03 226.48" style="fill:#263238"></polygon><polygon points="143.46 200.72 135.73 200.72 134.55 203.57 134.81 203.8 142.54 203.8 143.73 200.95 143.46 200.72" style="fill:#048654"></polygon><polygon points="143.46 200.72 135.73 200.72 134.55 203.57 134.81 203.8 142.54 203.8 143.73 200.95 143.46 200.72" style="fill:#fff;opacity:0.5"></polygon><polygon points="142.54 203.8 143.73 200.95 136 200.95 134.81 203.8 142.54 203.8" style="fill:#048654"></polygon><polygon points="142.54 203.8 143.73 200.95 136 200.95 134.81 203.8 142.54 203.8" style="fill:#fff;opacity:0.2"></polygon><path d="M116.57,214.09l6.56-2.8L121.48,220s-6.25,1.43-6.73-1.85Z" style="fill:#ce7a63"></path><polygon points="129.17 214.07 125.39 221.23 121.48 220.04 123.13 211.29 129.17 214.07" style="fill:#ce7a63"></polygon><path d="M101,209.11H91.25a13.1,13.1,0,0,0,.44,4.16c.08.27.17.54.28.83a7.26,7.26,0,0,0,.47,1,7.79,7.79,0,0,0,1.18,1.61,9.44,9.44,0,0,0,2.59,1.93,16.26,16.26,0,0,0,4.54,1.5,28.12,28.12,0,0,0,4,.44A56.94,56.94,0,0,0,119.7,219l-.54-5.13a104,104,0,0,1-13.42-1.44,27.32,27.32,0,0,1-2.94-.76,13,13,0,0,1-2-.89,8.52,8.52,0,0,1,.15-1.67Z" style="fill:#ce7a63"></path></g></svg>
